<svg xmlns="http://www.w3.org/2000/svg" viewBox="0 0 48 48">
<path fill="#4285F4" d="M24 9.5c3.5 0 6.6 1.2 9 3.6l6.7-6.7C35.8 2.7 30.2 0 24 0 14.6 0 6.5 5.4 2.5 13.1l7.9 6.1C12.7 13.4 17.9 9.5 24 9.5z"></path>
<path fill="#34A853" d="M46.1 24.5c0-1.6-.1-2.8-.4-4.1H24v8h12.6c-.3 2-1.6 4.6-3.8 6.3l7.3 5.6c4.3-3.9 6.8-9.6 6.8-15.8z"></path>
<path fill="#FBBC05" d="M10.4 28.7c-.5-1.5-.8-3-.8-4.7 0-1.6.3-3.2.8-4.7L2.5 13.1C.9 16.5 0 20.1 0 24c0 3.9.9 7.5 2.5 10.9l7.9-6.2z"></path>
<path fill="#EA4335" d="M24 48c6.2 0 11.4-2 15.1-5.5l-7.3-5.6c-2 1.4-4.8 2.3-7.8 2.3-6.1 0-11.3-3.9-13.2-9.4l-7.9 6.1C6.5 42.6 14.6 48 24 48z"></path>
</svg>
